<?xml version="1.0" standalone="no"?><!DOCTYPE svg PUBLIC "-//W3C//DTD SVG 1.1//EN" "http://www.w3.org/Graphics/SVG/1.1/DTD/svg11.dtd"><svg class="icon" width="200px" height="200.00px" viewBox="0 0 1024 1024" version="1.1" xmlns="http://www.w3.org/2000/svg"><path d="M512.417509 63.180971c-247.978814 0-449.007317 201.027479-449.007317 449.007317s201.028503 449.007317 449.007317 449.007317c247.980861 0 449.007317-201.027479 449.007317-449.007317S760.397347 63.180971 512.417509 63.180971zM680.966273 747.459686c-18.926048 0.002047-36.012192-7.774057-48.326659-20.269649l-0.352017 0.352017L512.599657 607.854115 393.755945 726.696804l-0.87902-0.87902c-12.362562 12.9438-29.695323 21.098527-49.009204 21.098527-37.497009 0-67.89432-30.398334-67.89432-67.892273 0-19.456121 8.28878-36.884049 21.402449-49.26196l119.278617-119.278617L299.658847 393.491932l0.354064-0.355087c-12.494569-12.31242-20.270672-29.399587-20.269649-48.326659-0.002047-37.497009 30.395264-67.89432 67.892273-67.892273 18.927071-0.002047 36.014238 7.774057 48.326659 20.269649l0.355087-0.354064 115.936499 115.940592L627.372657 297.655214l0.880043 0.87902c12.360516-12.9438 29.693276-21.100574 49.009204-21.100574 37.495986 0 67.892273 30.398334 67.89432 67.89432 0 19.456121-8.28878 36.882002-21.402449 49.260937L608.199992 510.142699l120.746038 120.741945-0.354064 0.354064c12.494569 12.314467 20.270672 29.401634 20.270672 48.326659C748.862639 717.064422 718.466352 747.461733 680.966273 747.459686z" fill="#d81e06" /></svg>