<?xml version="1.0" standalone="no"?><!DOCTYPE svg PUBLIC "-//W3C//DTD SVG 1.1//EN" "http://www.w3.org/Graphics/SVG/1.1/DTD/svg11.dtd"><svg class="icon" width="200px" height="200.00px" viewBox="0 0 1024 1024" version="1.1" xmlns="http://www.w3.org/2000/svg"><path d="M817.9 268.8H503.7l-86-91.6H206.3c-41.1 0-76.7 33.7-76.7 76.7V770c0 41.1 33.7 76.7 76.7 76.7h611.6c41.1 0 76.7-33.7 76.7-76.7V345.5c0-43-35.6-76.7-76.7-76.7zM694.4 608h-87.3v133.6c0 24.6-19.9 44.5-44.5 44.5h-89c-24.6 0-44.5-19.9-44.5-44.5V608h-87.2c-30.3 0-38.8-20.8-18.8-46.1l158.8-202c20-25.4 52.6-25.4 72.6 0l158.8 202c19.9 25.4 11.4 46.1-18.9 46.1z" fill="#55b737" /></svg>