<?xml version="1.0" standalone="no"?><!DOCTYPE svg PUBLIC "-//W3C//DTD SVG 1.1//EN" "http://www.w3.org/Graphics/SVG/1.1/DTD/svg11.dtd"><svg class="icon" width="200px" height="200.00px" viewBox="0 0 1024 1024" version="1.1" xmlns="http://www.w3.org/2000/svg"><path d="M401.066667 733.866667c0-68.266667 59.733333-123.733333 132.266666-110.933334 46.933333 8.533333 81.066667 46.933333 89.6 89.6 12.8 72.533333-42.666667 132.266667-110.933333 132.266667-64 4.266667-110.933333-46.933333-110.933333-110.933333z m251.733333-221.866667c0-68.266667 59.733333-123.733333 132.266667-110.933333 46.933333 8.533333 81.066667 46.933333 89.6 89.6 12.8 72.533333-42.666667 132.266667-110.933334 132.266666-64 0-110.933333-51.2-110.933333-110.933333zM401.066667 285.866667c0-68.266667 59.733333-123.733333 132.266666-110.933334 46.933333 8.533333 81.066667 46.933333 89.6 89.6 12.8 72.533333-42.666667 132.266667-110.933333 132.266667-64 4.266667-110.933333-46.933333-110.933333-110.933333zM174.933333 512c0-68.266667 59.733333-123.733333 132.266667-110.933333 46.933333 8.533333 81.066667 46.933333 89.6 89.6 12.8 72.533333-42.666667 132.266667-110.933333 132.266666-59.733333 0-110.933333-51.2-110.933334-110.933333z m281.6 0c0-29.866667 25.6-55.466667 55.466667-55.466667 29.866667 0 55.466667 25.6 55.466667 55.466667 0 29.866667-25.6 55.466667-55.466667 55.466667-29.866667 0-55.466667-25.6-55.466667-55.466667z m294.4 379.733333c25.6 38.4 93.866667 68.266667 166.4 68.266667 12.8 0 42.666667-85.333333 42.666667-85.333333-51.2-8.533333-93.866667-29.866667-119.466667-55.466667 85.333333-89.6 132.266667-217.6 115.2-354.133333-21.333333-196.266667-174.933333-358.4-366.933333-392.533334C281.6 21.333333 21.333333 281.6 68.266667 588.8c29.866667 192 192 345.6 384 366.933333 110.933333 12.8 213.333333-12.8 298.666666-64z m0 0"  /></svg>