<?xml version="1.0" standalone="no"?><!DOCTYPE svg PUBLIC "-//W3C//DTD SVG 1.1//EN" "http://www.w3.org/Graphics/SVG/1.1/DTD/svg11.dtd"><svg class="icon" width="200px" height="200.00px" viewBox="0 0 1024 1024" version="1.1" xmlns="http://www.w3.org/2000/svg"><path d="M1007.488 934.176l-123.552-114.016a497.12 497.12 0 0 0 115.712-320c0-276.064-223.648-499.808-499.84-499.808C223.776 0.352 0.128 224.096 0.128 500.16c0 276.064 223.648 499.84 499.68 499.84 119.488 0 229.28-41.984 315.36-112 1.728 2.336 3.584 4.544 5.728 6.528l127.264 117.28c8.672 7.84 19.168 11.84 29.664 11.84 13.152 0 26.176-6.368 35.232-18.176 16.512-21.472 13.76-53.504-5.568-71.296zM371.2 756.48l1.664-488.992 422.656 245.92L371.2 756.48z" /></svg>