<?xml version="1.0" standalone="no"?><!DOCTYPE svg PUBLIC "-//W3C//DTD SVG 1.1//EN" "http://www.w3.org/Graphics/SVG/1.1/DTD/svg11.dtd"><svg class="icon" width="200px" height="200.00px" viewBox="0 0 1024 1024" version="1.1" xmlns="http://www.w3.org/2000/svg"><path d="M885.70311111 524.94538311c41.91067614 0 81.48730098 9.96923923 116.50844445 27.64745387V211.66712059c0-91.5134995-74.18739886-165.70089836-165.70089837-165.70089837H158.17260206c-91.5134995 0-165.70089836 74.18739886-165.70089837 165.70089837v522.99346252c0 91.5134995 74.18739886 165.70089836 165.70089837 165.70089837h496.27030899C636.76469642 865.34033803 626.79545719 825.76371317 626.79545719 783.85303703c0-142.99210881 115.91425138-258.90765392 258.90765392-258.90765392zM299.08179839 244.23252575L695.60146087 473.16385185 299.08179839 702.09517795V244.23252575z"  /><path d="M839.68 584.81777778c-100.54193266 0-182.04444445 81.50251179-182.04444445 182.04444444s81.50251179 182.04444445 182.04444445 182.04444445 182.04444445-81.50251179 182.04444445-182.04444445-81.50251179-182.04444445-182.04444445-182.04444444z m109.22666667 211.77836999h-79.49274112V876.08888889h-59.4678511v-79.49274112H730.45333333v-59.4678511h79.49274112V657.63555555h59.4678511v79.49274112H948.90666667v59.4678511z"  /></svg>