<?xml version="1.0" standalone="no"?><!DOCTYPE svg PUBLIC "-//W3C//DTD SVG 1.1//EN" "http://www.w3.org/Graphics/SVG/1.1/DTD/svg11.dtd"><svg class="icon" width="200px" height="200.00px" viewBox="0 0 1024 1024" version="1.1" xmlns="http://www.w3.org/2000/svg"><path d="M984.615 39.385h-39.384v78.769H827.077v-78.77H196.923v78.77H78.77v-78.77H39.385C17.684 39.385 0 57.069 0 78.77v866.462c0 21.7 17.684 39.384 39.385 39.384h39.384v-39.384h118.154v39.384h630.154v-39.384H945.23v39.384h39.384c21.701 0 39.385-17.683 39.385-39.384V78.769c0-21.7-17.684-39.384-39.385-39.384zM196.923 827.077H78.77V708.923h118.154v118.154z m0-236.308H78.77V472.615h118.154V590.77z m0-236.307H78.77V236.308h118.154v118.154z m495.774 183.374L436.578 687.222c-4.174 2.088-8.743 3.072-13.272 3.072-5.435 0-10.713-1.457-15.518-4.293-8.664-5.238-13.942-14.611-13.942-24.615V362.654c0-10.044 5.278-19.417 13.942-24.655 8.744-5.278 19.653-5.75 28.751-1.182l256.118 149.347c9.965 4.923 16.266 14.887 16.266 25.836s-6.301 20.913-16.226 25.836z m252.534 289.24H827.077V708.924H945.23v118.154z m0-236.307H827.077V472.615H945.23V590.77z m0-236.307H827.077V236.308H945.23v118.154z"  /></svg>