<?xml version="1.0" standalone="no"?><!DOCTYPE svg PUBLIC "-//W3C//DTD SVG 1.1//EN" "http://www.w3.org/Graphics/SVG/1.1/DTD/svg11.dtd"><svg class="icon" width="200px" height="107.56px" viewBox="0 0 1904 1024" version="1.1" xmlns="http://www.w3.org/2000/svg"><path d="M0 0m66.626153 0l1066.01845 0q66.626153 0 66.626153 66.626153l0 0q0 66.626153-66.626153 66.626153l-1066.01845 0q-66.626153 0-66.626153-66.626153l0 0q0-66.626153 66.626153-66.626153Z" fill="#c1c5d0" /><path d="M0 399.756919m66.626153 0l1066.01845 0q66.626153 0 66.626153 66.626153l0 0q0 66.626153-66.626153 66.626153l-1066.01845 0q-66.626153 0-66.626153-66.626153l0 0q0-66.626153 66.626153-66.626153Z" fill="#c1c5d0" /><path d="M0 799.513837m66.626153 0l1066.01845 0q66.626153 0 66.626153 66.626153l0 0q0 66.626153-66.626153 66.626154l-1066.01845 0q-66.626153 0-66.626153-66.626154l0 0q0-66.626153 66.626153-66.626153Z" fill="#c1c5d0" /><path d="M1717.155844 483.705872l-261.640903 195.547759a40.442075 40.442075 0 0 1-24.585051 4.530578 28.649246 28.649246 0 0 1-28.91575-33.313076v-399.756919a29.049003 29.049003 0 0 1 28.91575-33.313076 40.442075 40.442075 0 0 1 24.585051 4.530578l261.640903 195.547759a39.642561 39.642561 0 0 1 0 66.093144z" fill="#5656fb" /></svg>