<?xml version="1.0" standalone="no"?><!DOCTYPE svg PUBLIC "-//W3C//DTD SVG 1.1//EN" "http://www.w3.org/Graphics/SVG/1.1/DTD/svg11.dtd"><svg class="icon" width="200px" height="200.00px" viewBox="0 0 1024 1024" version="1.1" xmlns="http://www.w3.org/2000/svg"><path d="M867.374545 646.749091H408.436364a40.494545 40.494545 0 1 1 0-80.756364h458.938181a40.494545 40.494545 0 0 1 0 80.756364z m0-188.741818H408.436364a40.494545 40.494545 0 1 1 0-80.756364h458.938181a40.494545 40.494545 0 0 1 0 80.756364z m-2.792727-181.76H159.418182A41.890909 41.890909 0 0 1 116.363636 235.752727 41.890909 41.890909 0 0 1 159.418182 195.490909h705.163636A41.890909 41.890909 0 0 1 907.636364 235.752727a41.890909 41.890909 0 0 1-43.054546 40.494546z m-546.909091 370.501818L116.363636 512l201.309091-134.749091z m-158.254545 101.003636h705.163636a40.494545 40.494545 0 1 1 0 80.756364H159.418182a40.494545 40.494545 0 1 1 0-80.756364z" fill="#448cd4" /></svg>